<?xml version="1.0" standalone="no"?><!DOCTYPE svg PUBLIC "-//W3C//DTD SVG 1.1//EN" "http://www.w3.org/Graphics/SVG/1.1/DTD/svg11.dtd"><svg t="1681541385431" class="icon" viewBox="0 0 1024 1024" version="1.1" xmlns="http://www.w3.org/2000/svg" p-id="3417" xmlns:xlink="http://www.w3.org/1999/xlink" width="200" height="200"><path d="M512 707.490909c-107.054545 0-195.490909-88.436364-195.490909-195.490909S404.945455 316.509091 512 316.509091v390.981818z m0 37.236364c130.327273 0 232.727273-102.4 232.727273-232.727273s-102.4-232.727273-232.727273-232.727273-232.727273 102.4-232.727273 232.727273 102.4 232.727273 232.727273 232.727273zM316.509091 251.345455c41.890909-32.581818 93.090909-55.854545 148.945454-60.509091V46.545455h93.09091v144.290909c55.854545 9.309091 107.054545 27.927273 148.945454 60.509091l102.4-102.4 65.163636 65.163636-102.4 102.4c32.581818 41.890909 55.854545 93.090909 60.509091 148.945454H977.454545v93.09091h-144.290909c-9.309091 55.854545-27.927273 107.054545-60.509091 148.945454l102.4 102.4-65.163636 65.163636-102.4-102.4c-41.890909 32.581818-93.090909 55.854545-148.945454 60.509091V977.454545h-93.09091v-144.290909c-55.854545-9.309091-107.054545-27.927273-148.945454-60.509091l-102.4 102.4-65.163636-65.163636 102.4-102.4c-32.581818-41.890909-55.854545-93.090909-60.509091-148.945454H46.545455v-93.09091h144.290909c9.309091-55.854545 27.927273-107.054545 60.509091-148.945454L148.945455 214.109091l65.163636-65.163636 102.4 102.4z" fill="#ffffff" p-id="3418"></path></svg>